<svg width="24" height="24" viewBox="0 0 24 24" fill="none" xmlns="http://www.w3.org/2000/svg">
  <path d="M19.0781 12.4751C19.0781 9.54669 21.4453 8.26544 21.5625 8.19013C20.0859 6.09356 17.7891 5.79669 16.9219 5.75981C14.9531 5.57825 13.0547 6.94513 12.0469 6.94513C11.0156 6.94513 9.42188 5.79669 7.75781 5.83356C5.60156 5.87044 3.60938 7.09356 2.51562 8.97825C0.234375 12.8469 1.96875 18.5063 4.14844 21.3976C5.25781 22.8095 6.53906 24.4016 8.20312 24.3282C9.82031 24.2548 10.4531 23.2751 12.375 23.2751C14.2734 23.2751 14.8594 24.3282 16.5469 24.2916C18.2812 24.2548 19.4141 22.847 20.4844 21.4204C21.75 19.8095 22.2656 18.2548 22.2891 18.1813C22.2422 18.1626 19.0781 16.9579 19.0781 12.4751Z" fill="black"/>
  <path d="M16.0078 3.75981C16.9219 2.64825 17.5547 1.11888 17.3672 -0.400391C16.0547 -0.326172 14.4609 0.504859 13.5 1.57825C12.6328 2.52825 11.8828 4.11888 12.0938 5.57825C13.5469 5.70981 15.0469 4.87138 16.0078 3.75981Z" fill="black"/>
</svg>