<svg width="24" height="24" viewBox="0 0 24 24" fill="none" xmlns="http://www.w3.org/2000/svg">
  <path fill-rule="evenodd" clip-rule="evenodd" d="M24 11.3755C24 5.09296 18.6278 0 12.0012 0C5.37216 0 0 5.09296 0 11.3755C0 16.9939 4.3884 21.6055 10.32 22.9798C10.8 23.1041 11.4 22.9798 11.4 22.4827C11.4 22.1098 11.4 21.4884 11.4 21.4884C11.4 21.4884 9.6 22.1098 8.4 22.1098C6 22.1098 4.8 20.6184 4.8 19.127C4.8 18.2556 5.04 17.5099 5.76 16.7641C5.28 16.0184 4.8 14.7756 4.8 13.7799C4.8 11.2513 6.72 9.34127 9.6 9.34127C11.04 9.34127 12.24 9.83838 13.2 10.7098L15.12 9.58838C15.12 9.58838 15.36 10.5841 14.88 11.2513L13.2 12.2469C13.2 12.2469 14.16 12.1227 15.12 11.7498C15.12 11.7498 14.88 12.6213 14.16 13.2427C14.16 19.0027 9.6 23.4784 9.6 23.4784C15.84 22.9813 24 18.8784 24 11.3755ZM9.6 13.2427C8.88 13.2427 8.4 13.7798 8.4 14.4013C8.4 15.0227 8.88 15.5598 9.6 15.5598C10.32 15.5598 10.8 15.0227 10.8 14.4013C10.8 13.7798 10.32 13.2427 9.6 13.2427Z" fill="#00B900"/>
</svg>