<svg width="24" height="24" viewBox="0 0 24 24" fill="none" xmlns="http://www.w3.org/2000/svg">
  <path d="M21.533 7.11175C21.5482 7.32494 21.5482 7.53817 21.5482 7.75136C21.5482 14.2539 16.599 21.7463 7.5533 21.7463C4.76648 21.7463 2.17767 20.9391 0 19.5382C0.395953 19.5838 0.776625 19.599 1.18781 19.599C3.48727 19.599 5.60405 18.8223 7.29441 17.4975C5.13197 17.4518 3.31978 16.0356 2.69541 14.0864C3 14.132 3.30455 14.1625 3.62437 14.1625C4.06598 14.1625 4.50764 14.1016 4.91883 13.9949C2.66498 13.5381 0.974578 11.5584 0.974578 9.16759V9.10673C1.62937 9.47219 2.39086 9.70061 3.19791 9.73103C1.87303 8.84777 1.00505 7.34017 1.00505 5.63458C1.00505 4.72089 1.24866 3.88333 1.67508 3.15236C4.09641 6.13712 7.73602 8.08633 11.8172 8.29956C11.7411 7.93409 11.6954 7.55341 11.6954 7.17267C11.6954 4.462 13.8883 2.25391 16.6141 2.25391C18.0304 2.25391 19.3095 2.84781 20.208 3.80723C21.3197 3.5939 22.3857 3.18272 23.3299 2.61925C22.9643 3.76155 22.1877 4.72103 21.1674 5.33019C22.1573 5.22366 23.1167 4.94955 24 4.56878C23.33 5.54348 22.4924 6.41148 21.533 7.11175Z" fill="#1DA1F2"/>
</svg>